<svg id='web3_specs' viewBox="0 0 480 480" height="66px" width="100px" preserveAspectRatio="none" xmlns="http://www.w3.org/2000/svg">
    <defs>
		<filter id="shadow_1">
			<feDropShadow stdDeviation="0.4" dy="0.6" dx="0.4"/>
		</filter>
		<style>
			.base-style{fill: none;fill-rule:evenodd;stroke:#000000;stroke-width:0.2px;stroke-linecap:butt;stroke-linejoin:miter;stroke-opacity:1 }
			.fill-base{fill: rgba(167,167,167,.4);}
			.fill-1{fill: rgb(102,102,102);}
			.fill-2{fill: rgb(167,167,167);}
			.fill-3{fill: rgb(234,234,234);}
			.stroke-set-1{ stroke: rgb(167,167,167);stroke-width:3px;}
			.text-base{font-style:normal;font-weight:normal;font-size:45px;line-height:125%;font-family:sans-serif;letter-spacing:0px;word-spacing:0px;white-space:pre;fill:#000000;fill-opacity:1;stroke:#000000;stroke-width:1px;stroke-linecap:butt;stroke-linejoin:miter;stroke-opacity:1;}
			.text-set-1{fill:rgb(255,215,0);stroke:rgb(167,167,167);filter:url(#shadow_1);}
		</style>
		<!-- id="text_path_1" -->
		<path id='text_path_1' class="base-style" d="m 27.727122,155 c 139.530628,12.59579 267.901528,10.2742 396.938868,0" />		
	</defs>
	<g>
		<path class='base-style fill-base' d="M 0.10199875,0.10199875 H 479.898 V 249.898 H 0.10199875 Z" />
		<g>
			<path class="base-style fill-2" d="M 7.7499988,38.885458 C 12.427541,31.925206 20.967647,28.190765 30.574193,28.277115 L 53.257598,0.10064492 C 43.597137,0.13074493 37.817133,2.9399259 33.309207,7.3136573 32.28295,8.3804677 31.305553,9.4916381 30.4245,10.690279 22.611285,20.426642 15.525818,29.664675 7.7499988,38.885458 Z" />
			<path class="base-style fill-2" d="m 30.661147,28.292505 22.686828,-28.18626997 59.606425,0.036 -6.12592,7.49337997 c -3.76463,5.92241 -0.37201,7.60132 6.17325,7.36987 84.04019,6.88946 169.92002,6.45748 257.29273,0.0839 7.24632,0.39877 12.71346,-2.5457 17.09864,-7.52326 l 6.17422,-7.44865997 56.02267,-0.0174 L 426.92008,28.172515 C 294.8432,46.390195 162.73804,41.042065 30.661147,28.292505 Z" />
			<path class="base-style fill-2" d="m 106.82802,7.635615 6.15934,-7.44535 -0.0233,14.91145 c -5.08259,0.37515 -10.81148,-0.8639 -6.13599,-7.4661 z" />
			<path class="base-style fill-2" d="m 426.25287,28.172515 c 22.85818,1.27235 30.02077,16.23574 30.33595,42.329304 l 0.009,126.904951 22.72624,-28.156 -0.009,-126.904945 c -0.46723,-25.93136 -8.31364,-42.84737 -30.39232,-42.37541 z" />
			<path class="base-style fill-2" d="m 449.46551,228.371 c 5.55711,-8.43707 7.12697,-17.22131 7.34902,-30.96423 l 22.72622,-28.156 c -0.77079,26.9332 -10.42454,39.01853 -30.07524,59.12023 z"/>
			<path class="base-style" d="m 112.95399,0.14223503 0.0473,14.86324997" />
			<path class="base-style" d="M 470.06125,8.4142223 447.33504,36.570243" id="path216" />
			<path class="base-style" d="M 479.25624,37.133554 456.53002,65.289541" />
			<path class="base-style fill-1" d="m 30.661178,28.292495 c 137.810272,13.16055 267.930902,17.61322 396.159202,0.0193 21.62278,1.34028 30.18372,14.39071 30.33596,42.3293 l 0.009,126.904945 c -0.19579,27.85033 -8.94141,39.60342 -29.50918,41.79145 C 296.03658,255.23605 162.89293,250.74755 30.620183,239.97896 10.088618,238.96643 -0.669727,225.58917 0.142519,197.63762 L 0.132233,70.689435 c 0.02254,-28.18929 10.095723,-42.46816 30.528914,-42.39693 z" />
			<path class="base-style stroke-set-1" d="m 32.569701,50.566439 c 129.266259,11.17574 259.969129,15.53058 394.860239,0 l 0.80023,165.443041 0.008,1.56637 c -133.96307,15.97242 -265.59156,11.15384 -396.741027,-0.06 z" />
		</g>
		<g>
			<text class='text-base text-set-1' x="80" y="383"><textPath href='#text_path_1'>METAVERSE</textPath></text>
		</g>
	</g>
</svg>